<svg width="27" height="20" viewBox="0 0 27 20" fill="none" xmlns="http://www.w3.org/2000/svg">
<path d="M21.9888 19.5897H17.7231C17.388 19.5897 17.1138 19.3142 17.1138 18.9775V16.9369C17.1138 16.6002 17.388 16.3248 17.7231 16.3248H21.9888C22.8876 16.3248 23.6138 15.5952 23.6138 14.6923V4.89743C23.6138 3.99446 22.8876 3.26495 21.9888 3.26495H17.7231C17.388 3.26495 17.1138 2.98947 17.1138 2.65277V0.612179C17.1138 0.27548 17.388 0 17.7231 0H21.9888C24.6802 0 26.8638 2.19364 26.8638 4.89743V14.6923C26.8638 17.3961 24.6802 19.5897 21.9888 19.5897ZM19.6021 9.33572L11.0708 0.765223C10.3091 0 8.98877 0.535656 8.98877 1.63248V6.5299H2.08252C1.40713 6.5299 0.86377 7.07576 0.86377 7.75426V12.6517C0.86377 13.3302 1.40713 13.876 2.08252 13.876H8.98877V18.7735C8.98877 19.8703 10.3091 20.406 11.0708 19.6407L19.6021 11.0702C20.0743 10.5907 20.0743 9.81526 19.6021 9.33572Z" fill="white"/>
</svg>
