<svg width="46" height="23" viewBox="0 0 46 23" fill="none" xmlns="http://www.w3.org/2000/svg">
<path d="M43.0669 0.433763C43.8461 0.433763 44.5843 0.82415 45.0764 1.51817C45.8556 2.68933 45.6095 4.29426 44.5433 5.16178L22.9308 21.8183L1.48238 5.33529C0.375101 4.46776 0.0880285 2.81946 0.867225 1.69168C1.31834 1.04103 2.09754 0.607268 2.91774 0.607268C3.45088 0.607268 3.98401 0.780774 4.39412 1.12778L22.6847 15.1817L22.9308 15.3552L23.1769 15.1817L41.5905 0.910903C42.0416 0.607268 42.5338 0.433763 43.0669 0.433763ZM43.0669 0C42.4928 0 41.8776 0.173505 41.3855 0.563892L22.9308 14.8347L4.59917 0.737397C4.10704 0.34701 3.49189 0.173505 2.87673 0.173505C1.97451 0.173505 1.07228 0.607268 0.498132 1.43142C-0.404096 2.77608 -0.0350027 4.68464 1.23632 5.6823L22.9308 22.3822L44.7483 5.55217C46.0196 4.55451 46.3067 2.68933 45.4045 1.30129C44.8303 0.433763 43.9691 0 43.0669 0Z" fill="#D72B27"/>
</svg>
